Land_normalized_Precision Landing13_filtered_grf
version=1
nRows=12
nColumns=37
inDegrees=yes
endheader
time		1_ground_force_vx		1_ground_force_vy		1_ground_force_vz		1_ground_force_px		1_ground_force_py		1_ground_force_pz		1_ground_torque_x		1_ground_torque_y		1_ground_torque_z		2_ground_force_vx		2_ground_force_vy		2_ground_force_vz		2_ground_force_px		2_ground_force_py		2_ground_force_pz		2_ground_torque_x		2_ground_torque_y		2_ground_torque_z		3_ground_force_vx		3_ground_force_vy		3_ground_force_vz		3_ground_force_px		3_ground_force_py		3_ground_force_pz		3_ground_torque_x		3_ground_torque_y		3_ground_torque_z		4_ground_force_vx		4_ground_force_vy		4_ground_force_vz		4_ground_force_px		4_ground_force_py		4_ground_force_pz		4_ground_torque_x		4_ground_torque_y		4_ground_torque_z		
1.076167		-43.978866		815.206788		236.219940		0.088540		0.000000		0.222562		-0.470915		8.729369		2.529497		31.216088		633.749826		188.827274		-0.152788		0.000000		0.272819		1.596670		32.415546		9.658295		4.365377		-0.416560		-0.561495		0.353256		1.255137		1.891376		0.008514		0.011144		0.054454		-16.133990		0.338187		-2.950481		-0.289375		1.264907		1.901320		0.012594		-0.000264		0.002303		
1.079399		-48.749302		807.271143		228.891702		0.088007		0.000000		0.219083		-0.502808		8.326402		2.360853		30.417583		610.883775		183.523038		-0.152700		0.000000		0.271404		1.571771		31.566266		9.483209		4.434284		-0.379724		-0.773220		0.353208		1.255156		1.891426		0.006817		0.010260		0.053378		-16.164303		0.372991		-3.157694		-0.289415		1.264914		1.901369		0.009570		-0.000221		0.001870		
1.082631		-52.285988		801.020320		220.936524		0.088633		0.000000		0.218671		-0.529572		8.113055		2.237737		28.633311		590.445317		178.916137		-0.152481		0.000000		0.269848		1.490179		30.728911		9.311446		4.373448		-0.288452		-0.898129		0.353160		1.255167		1.891474		0.004726		0.011725		0.052537		-16.241103		0.452879		-3.224932		-0.289432		1.264916		1.901411		0.006362		-0.000177		0.001263		
1.085864		-54.347056		795.866098		212.861398		0.090148		0.000000		0.220695		-0.551393		8.074663		2.159635		27.217835		573.763667		175.817396		-0.152556		0.000000		0.268407		1.428190		30.106878		9.225603		4.209791		-0.168574		-0.925023		0.353117		1.255167		1.891513		0.002876		0.014611		0.052269		-16.368330		0.527755		-3.144704		-0.289427		1.264914		1.901445		0.004288		-0.000138		0.000824		
1.089096		-54.660276		790.312865		205.826253		0.091674		0.000000		0.223268		-0.574215		8.302360		2.162228		26.644206		561.162656		173.952076		-0.152925		0.000000		0.267235		1.411025		29.718055		9.212158		4.007351		-0.036829		-0.885033		0.353082		1.255159		1.891541		0.001990		0.017089		0.052047		-16.540777		0.567179		-2.983871		-0.289407		1.264910		1.901474		0.003963		-0.000136		0.000715		
1.092328		-53.527640		783.282617		200.903571		0.092521		0.000000		0.224762		-0.589728		8.629670		2.213413		26.453814		552.275997		172.031412		-0.153175		0.000000		0.266399		1.407354		29.381315		9.152143		3.841436		0.094481		-0.820339		0.353060		1.255142		1.891560		0.002409		0.017660		0.050938		-16.736034		0.570945		-2.837579		-0.289381		1.264903		1.901504		0.005209		-0.000178		0.000883		
1.095561		-51.667076		774.774843		198.540752		0.092509		0.000000		0.224557		-0.584427		8.763784		2.245773		25.979028		546.589305		168.733487		-0.152889		0.000000		0.265931		1.372718		28.881459		8.915785		3.771524		0.209772		-0.757497		0.353054		1.255121		1.891573		0.003842		0.016067		0.048589		-16.915481		0.556314		-2.778029		-0.289356		1.264894		1.901539		0.007268		-0.000239		0.001193		
1.098793		-49.502990		765.687144		198.674607		0.091787		0.000000		0.222899		-0.562398		8.698891		2.257122		25.108338		543.779492		163.637442		-0.151999		0.000000		0.265834		1.299476		28.143033		8.469016		3.819910		0.290434		-0.702707		0.353062		1.255099		1.891586		0.005498		0.013080		0.045733		-17.035946		0.535366		-2.826157		-0.289335		1.264884		1.901578		0.009147		-0.000288		0.001517		
1.102025		-46.961007		757.276422		200.971106		0.090643		0.000000		0.220508		-0.540632		8.718048		2.313656		24.411075		543.592870		157.448160		-0.150830		0.000000		0.266046		1.225192		27.282934		7.902339		3.961165		0.324060		-0.657076		0.353077		1.255083		1.891605		0.006424		0.009503		0.043771		-17.067758		0.505240		-2.953364		-0.289322		1.264874		1.901617		0.009992		-0.000296		0.001729		
1.105258		-43.941807		750.669427		204.982495		0.089440		0.000000		0.218229		-0.525088		8.970377		2.449526		24.565546		545.790869		151.384320		-0.149797		0.000000		0.266447		1.193024		26.506396		7.352057		4.138311		0.310305		-0.635205		0.353094		1.255078		1.891634		0.005919		0.005469		0.043871		-17.005180		0.458920		-3.106449		-0.289319		1.264865		1.901650		0.009380		-0.000253		0.001713		
1.108490		-40.733047		746.519740		209.964002		0.088516		0.000000		0.216742		-0.507878		9.307949		2.617928		25.641541		549.983831		146.367276		-0.149104		0.000000		0.266897		1.209525		25.943059		6.904233		4.290768		0.260582		-0.663591		0.353105		1.255085		1.891672		0.003970		0.000807		0.046352		-16.870427		0.402700		-3.228598		-0.289326		1.264860		1.901670		0.007453		-0.000178		0.001426		
1.111722		-37.758797		744.992153		214.940472		0.087997		0.000000		0.216298		-0.485818		9.585446		2.765543		26.955883		555.643696		142.588969		-0.148648		0.000000		0.267288		1.240136		25.563133		6.560028		4.379060		0.188667		-0.758729		0.353109		1.255104		1.891713		0.001368		-0.004025		0.050798		-16.698815		0.356926		-3.273681		-0.289340		1.264857		1.901676		0.004753		-0.000102		0.000932		
